<?xml version="1.0" standalone="no"?>
<!DOCTYPE svg PUBLIC "-//W3C//DTD SVG 20010904//EN"
 "http://www.w3.org/TR/2001/REC-SVG-20010904/DTD/svg10.dtd">
<svg version="1.0" xmlns="http://www.w3.org/2000/svg"
 width="402.000000pt" height="402.000000pt" viewBox="0 0 402.000000 402.000000"
 preserveAspectRatio="xMidYMid meet">

<g transform="translate(0.000000,402.000000) scale(0.100000,-0.100000)"
fill="#c60f6d" stroke="none">
<path d="M1800 4004 c-14 -2 -59 -9 -100 -15 -175 -24 -414 -101 -584 -186
-592 -297 -988 -844 -1092 -1508 -22 -144 -23 -431 -1 -572 68 -431 248 -797
542 -1102 351 -364 789 -570 1303 -613 496 -41 1032 131 1421 456 642 537 887
1405 616 2194 -102 298 -258 546 -484 772 -281 279 -620 461 -1021 545 -109
23 -153 27 -350 30 -124 2 -236 2 -250 -1z m408 -14 c374 -40 715 -175 1014
-401 106 -80 287 -261 367 -367 439 -580 534 -1340 251 -1997 -97 -225 -226
-420 -395 -594 -174 -180 -346 -306 -559 -410 -282 -138 -557 -201 -876 -201
-769 0 -1452 426 -1790 1115 -145 297 -208 597 -197 940 9 301 64 525 193 793
201 419 519 736 939 938 320 154 704 221 1053 184z"/>
<path d="M1849 3860 c-816 -79 -1476 -658 -1653 -1451 -75 -337 -57 -658 54
-993 158 -474 511 -872 965 -1087 648 -306 1415 -213 1970 241 101 82 259 252
333 356 397 558 460 1272 167 1882 -267 556 -780 938 -1392 1036 -118 19 -334
27 -444 16z m404 -25 c739 -97 1353 -639 1540 -1360 46 -178 60 -308 54 -520
-5 -218 -26 -339 -87 -526 -179 -544 -620 -987 -1166 -1168 -285 -95 -612
-121 -899 -71 -747 131 -1332 700 -1493 1449 -24 117 -26 144 -27 366 0 212 3
253 23 353 158 781 781 1369 1562 1477 131 18 356 18 493 0z"/>
<path d="M1820 3709 c-518 -58 -984 -353 -1267 -804 -18 -27 -57 -102 -87
-165 -372 -779 -91 -1725 649 -2180 162 -100 358 -176 566 -222 89 -19 134
-22 319 -23 244 0 353 16 549 82 619 206 1071 758 1151 1406 17 135 7 411 -19
539 -92 452 -349 835 -730 1090 -241 161 -481 245 -803 282 l-48 6 0 -1545 0
-1545 80 0 80 0 0 637 0 638 408 -408 409 -409 46 62 c26 34 47 65 47 69 0 3
-180 186 -400 406 -220 220 -400 403 -400 406 0 5 514 478 669 616 l35 30 -48
68 -48 67 -42 -39 c-22 -22 -169 -156 -326 -298 -157 -142 -300 -272 -317
-289 l-33 -30 0 691 0 691 83 -18 c181 -40 354 -113 512 -218 346 -228 578
-571 667 -986 30 -139 32 -434 4 -581 -38 -207 -126 -417 -249 -600 -80 -118
-274 -312 -392 -392 -225 -152 -478 -243 -742 -268 l-73 -7 0 1626 0 1626 -65
0 -65 0 0 -1626 0 -1626 -67 7 c-481 50 -890 293 -1150 683 -266 399 -331 889
-177 1350 124 374 404 697 763 881 133 68 231 101 424 145 l27 6 0 -1371 0
-1372 -41 7 c-170 27 -407 156 -566 308 -115 111 -193 217 -263 363 -64 131
-94 226 -113 362 l-13 88 -77 3 -77 3 0 -44 c0 -110 62 -338 131 -484 125
-264 371 -513 638 -647 136 -69 410 -146 518 -146 l23 0 -2 1552 c-2 1024 -6
1552 -13 1553 -5 1 -44 -2 -85 -6z m80 -1544 l0 -1535 -36 0 c-20 0 -80 9
-134 20 -264 54 -488 172 -686 362 -235 227 -378 515 -419 846 l-7 52 66 0
c60 0 66 -2 70 -22 38 -215 62 -298 121 -421 58 -121 134 -227 244 -338 117
-118 218 -190 355 -255 83 -39 248 -94 282 -94 12 0 14 210 14 1385 0 1312 -1
1385 -17 1385 -32 0 -177 -38 -268 -70 -222 -79 -399 -192 -576 -369 -225
-226 -365 -482 -429 -789 -27 -128 -37 -358 -20 -488 79 -638 524 -1155 1140
-1324 94 -26 240 -50 303 -50 l47 0 0 1620 0 1620 55 0 55 0 0 -1621 0 -1622
88 6 c175 11 376 68 555 158 296 147 568 421 706 712 150 316 194 675 122
1006 -128 585 -577 1046 -1154 1186 -56 14 -110 25 -119 25 -17 0 -18 -40 -18
-704 0 -388 3 -707 8 -709 4 -3 140 117 302 265 162 148 325 296 361 329 l67
59 38 -56 39 -56 -36 -32 c-116 -101 -669 -610 -669 -615 0 -3 180 -186 400
-406 220 -220 400 -404 400 -409 0 -5 -17 -31 -37 -58 l-37 -48 -411 410
c-225 225 -413 410 -418 410 -4 0 -7 -290 -7 -645 l0 -645 -65 0 -65 0 0 1531
0 1532 73 -7 c109 -11 259 -44 371 -83 852 -294 1319 -1184 1082 -2057 -96
-351 -322 -678 -626 -906 -110 -82 -344 -203 -470 -243 -508 -161 -1040 -89
-1472 200 -377 252 -641 653 -724 1098 -29 154 -26 501 5 645 53 249 163 493
309 685 106 140 296 315 445 408 125 80 322 167 457 202 86 23 255 53 303 54
l37 1 0 -1535z"/>
</g>
</svg>
